<?xml version="1.0" encoding="utf-8"?>
<!-- Generator: Adobe Illustrator 26.3.1, SVG Export Plug-In . SVG Version: 6.00 Build 0)  -->
<svg version="1.1" id="Livello_1" xmlns="http://www.w3.org/2000/svg" xmlns:xlink="http://www.w3.org/1999/xlink" x="0px" y="0px"
	 viewBox="0 0 64.7 73" style="enable-background:new 0 0 64.7 73;" xml:space="preserve">
<style type="text/css">
	.st0{fill:#452D1D;}
	.st1{fill:#95C121;}
</style>
<g>
	<g>
		<path class="st0" d="M35.2,57.7c-3.4-2.6-7.4-4.3-11.5-5.5c-3.5-1-6.8-2.4-9.9-4.4c-2.9-1.9-5.5-4.2-7.4-7.1
			c-1.6-2.4-2.6-5.1-3.1-8.1c-1,1.4-1.7,2.7-2.1,4.2c-1.4,4.4-1.1,8.8,0.3,13.1c1.6,5.3,4.6,9.8,8.5,13.7c4,4,8.6,6.9,14.1,8.5
			c4.2,1.2,8.4,1.5,12.5,0.1c3.7-1.2,5.6-4.4,3.9-8.3C39.3,61.3,37.4,59.4,35.2,57.7z"/>
		<path class="st0" d="M38.8,58.4c0,0-0.1,0.1-0.1,0.1c0.2,0.2,0.5,0.5,0.7,0.7c0,0-0.1-0.1-0.1-0.1C39.1,58.8,38.9,58.6,38.8,58.4z
			"/>
		<path class="st0" d="M47.1,41.1c1.5-2.3,3.3-4.2,5.5-5.7c1.9-1.3,3.9-2,6.3-2.4c-1.1-0.8-2.1-1.3-3.3-1.6
			c-3.4-1.1-6.8-0.8-10.2,0.2c-2.4,0.7-4.6,1.8-6.7,3.2c2.8,2.9,5,6,6.6,9.4C46,43.1,46.5,42,47.1,41.1z"/>
		<path class="st0" d="M63.6,38.5c-0.9-2.9-3.4-4.3-6.5-3c-2,0.9-3.5,2.4-4.8,4.1c-2,2.7-3.4,5.7-4.3,8.9c-0.1,0.5-0.3,1-0.5,1.4
			c1.2,4.5,1.1,8.7-0.1,12.7c-0.4,1.1-0.8,2.2-1.4,3.1c0.1,0,0.1,0,0.2,0c4.1-1.2,7.6-3.5,10.7-6.6c3.1-3.1,5.4-6.7,6.6-10.9
			C64.4,44.9,64.6,41.7,63.6,38.5z"/>
		<path class="st0" d="M45.6,49c-1.6-5.3-4.6-9.8-8.5-13.7c-4-4-8.6-6.9-14.1-8.5c-4.2-1.2-8.4-1.5-12.5-0.1
			c-3.7,1.2-5.6,4.4-3.9,8.3c1.1,2.6,3.1,4.5,5.3,6.2c3.4,2.6,7.4,4.3,11.5,5.5c3.5,1,6.8,2.4,9.9,4.4c2.9,1.9,5.5,4.2,7.4,7.1
			c1.6,2.4,2.6,5.1,3.1,8.1c1-1.4,1.7-2.7,2.1-4.2C47.2,57.7,46.9,53.3,45.6,49z"/>
		<path class="st1" d="M43.5,23.9c-1.3,0.7-2.2,1.6-2.9,2.6c-0.1-3.5-1.4-8-5.7-12C28,8.2,25.8,1,25.8,1
			c-7.7,24.9,7.5,30.2,12.4,31.3c-7.5-4.7-9.5-17.9-9.5-17.9c2.4,9,8.3,14.9,10.4,16.8c0.1,0.1,0.1,0.1,0.2,0.2
			c0.2-0.1,0.5-0.2,0.8-0.5c1.5-0.9,4.3-2.9,6.1-6.4c0,0-2.4,5.9-6.4,7.3c2.4,0,10.1-0.8,9.2-13.2C49.2,18.7,47.4,21.7,43.5,23.9z"
			/>
	</g>
</g>
</svg>
